{
  "source": "C:\\Users\\Peter\\Desktop\\stuff\\MIUN\\quantitative_research\\video_compression\\videos\\BVI-HD\\BVI-HD_CDVL_videos\\ORIG\\Toys_1920x1080_30fps.mp4",
  "output": "C:\\Users\\Peter\\Desktop\\stuff\\MIUN\\quantitative_research\\video_compression\\compressed_videos\\BVI-HD\\vp9\\8\\Toys_1920x1080_30fps_vp9.webm",
  "codec": "vp9",
  "ok": "Input #0, mov,mp4,m4a,3gp,3g2,mj2, from 'C:\\Users\\Peter\\Desktop\\stuff\\MIUN\\quantitative_research\\video_compression\\videos\\BVI-HD\\BVI-HD_CDVL_videos\\ORIG\\Toys_1920x1080_30fps.mp4':\n  Metadata:\n    major_brand     : isom\n    minor_version   : 512\n    compatible_brands: isomiso2avc1mp41\n    encoder         : Lavf54.28.101\n  Duration: 00:00:05.00, start: 0.000000, bitrate: 270887 kb/s\n  Stream #0:0[0x1](und): Video: h264 (High 4:4:4 Predictive) (avc1 / 0x31637661), yuv420p(progressive), 1920x1080, 270883 kb/s, 30 fps, 30 tbr, 30 tbn (default)\n    Metadata:\n      handler_name    : VideoHandler\n      vendor_id       : [0][0][0][0]\n[out#0/webm @ 000001d830a19280] Codec AVOption b:a (set bitrate (in bits/s)) has not been used for any stream. The most likely reason is either wrong type (e.g. a video option with no video streams) or that it is a private option of some decoder which was not actually used for any stream.\nStream mapping:\n  Stream #0:0 -> #0:0 (h264 (native) -> vp9 (libvpx-vp9))\nPress [q] to stop, [?] for help\n[libvpx-vp9 @ 000001d8315500c0] v1.15.2-100-g40561f514\nOutput #0, webm, to 'C:\\Users\\Peter\\Desktop\\stuff\\MIUN\\quantitative_research\\video_compression\\compressed_videos\\BVI-HD\\vp9\\8\\Toys_1920x1080_30fps_vp9.webm':\n  Metadata:\n    major_brand     : isom\n    minor_version   : 512\n    compatible_brands: isomiso2avc1mp41\n    encoder         : Lavf62.3.100\n  Stream #0:0(und): Video: vp9, yuv420p(tv, progressive), 1920x1080, q=2-31, 8000 kb/s, 30 fps, 1k tbn (default)\n    Metadata:\n      encoder         : Lavc62.11.100 libvpx-vp9\n      handler_name    : VideoHandler\n      vendor_id       : [0][0][0][0]\n    Side data:\n      cpb: bitrate max/min/avg: 0/0/0 buffer size: 8000000 vbv_delay: N/A\nframe=    0 fps=0.0 q=0.0 size=       0KiB time=N/A bitrate=N/A speed=N/A elapsed=0:00:00.51    \nframe=    1 fps=0.9 q=12.0 size=       1KiB time=00:00:00.03 bitrate= 152.2kbits/s speed=0.0313x elapsed=0:00:01.06    \nframe=    5 fps=3.1 q=39.0 size=       1KiB time=00:00:00.16 bitrate=  30.4kbits/s speed=0.105x elapsed=0:00:01.58    \nframe=    8 fps=3.8 q=37.0 size=       1KiB time=00:00:00.26 bitrate=  19.0kbits/s speed=0.127x elapsed=0:00:02.10    \nframe=   12 fps=4.6 q=37.0 size=       1KiB time=00:00:00.40 bitrate=  12.7kbits/s speed=0.153x elapsed=0:00:02.61    \nframe=   14 fps=4.5 q=35.0 size=       1KiB time=00:00:00.46 bitrate=  10.9kbits/s speed=0.149x elapsed=0:00:03.13    \nframe=   16 fps=4.3 q=35.0 size=       1KiB time=00:00:00.50 bitrate=  10.1kbits/s speed=0.134x elapsed=0:00:03.74    \nframe=   17 fps=3.9 q=35.0 size=       1KiB time=00:00:00.56 bitrate=   9.0kbits/s speed=0.129x elapsed=0:00:04.38    \nframe=   19 fps=3.8 q=36.0 size=       1KiB time=00:00:00.63 bitrate=   8.0kbits/s speed=0.128x elapsed=0:00:04.93    \nframe=   21 fps=3.8 q=18.0 size=       1KiB time=00:00:00.70 bitrate=   7.2kbits/s speed=0.126x elapsed=0:00:05.56    \nframe=   24 fps=3.9 q=34.0 size=       1KiB time=00:00:00.80 bitrate=   6.3kbits/s speed=0.131x elapsed=0:00:06.10    \nframe=   27 fps=4.0 q=35.0 size=       1KiB time=00:00:00.90 bitrate=   5.6kbits/s speed=0.135x elapsed=0:00:06.67    \nframe=   29 fps=4.0 q=35.0 size=       1KiB time=00:00:00.96 bitrate=   5.2kbits/s speed=0.134x elapsed=0:00:07.23    \nframe=   31 fps=4.0 q=17.0 size=       1KiB time=00:00:01.03 bitrate=   4.9kbits/s speed=0.133x elapsed=0:00:07.79    \nframe=   34 fps=4.1 q=33.0 size=       1KiB time=00:00:01.10 bitrate=   4.6kbits/s speed=0.132x elapsed=0:00:08.35    \nframe=   36 fps=4.0 q=35.0 size=       1KiB time=00:00:01.20 bitrate=   4.2kbits/s speed=0.135x elapsed=0:00:08.91    \nframe=   39 fps=4.1 q=36.0 size=       1KiB time=00:00:01.30 bitrate=   3.9kbits/s speed=0.138x elapsed=0:00:09.43    \nframe=   40 fps=4.0 q=36.0 size=       1KiB time=00:00:01.33 bitrate=   3.8kbits/s speed=0.134x elapsed=0:00:09.97    \nframe=   43 fps=4.1 q=32.0 size=       1KiB time=00:00:01.40 bitrate=   3.6kbits/s speed=0.133x elapsed=0:00:10.52    \nframe=   45 fps=4.0 q=33.0 size=       1KiB time=00:00:01.50 bitrate=   3.4kbits/s speed=0.135x elapsed=0:00:11.12    \nframe=   47 fps=4.0 q=25.0 size=       1KiB time=00:00:01.56 bitrate=   3.2kbits/s speed=0.134x elapsed=0:00:11.68    \nframe=   50 fps=4.1 q=33.0 size=       1KiB time=00:00:01.66 bitrate=   3.0kbits/s speed=0.136x elapsed=0:00:12.23    \nframe=   52 fps=4.1 q=34.0 size=       1KiB time=00:00:01.73 bitrate=   2.9kbits/s speed=0.135x elapsed=0:00:12.82    \nframe=   54 fps=4.0 q=34.0 size=       1KiB time=00:00:01.80 bitrate=   2.8kbits/s speed=0.135x elapsed=0:00:13.36    \nframe=   57 fps=4.1 q=33.0 size=       1KiB time=00:00:01.90 bitrate=   2.7kbits/s speed=0.137x elapsed=0:00:13.91    \nframe=   59 fps=4.1 q=24.0 size=       1KiB time=00:00:01.96 bitrate=   2.6kbits/s speed=0.136x elapsed=0:00:14.46    \nframe=   61 fps=4.1 q=32.0 size=       1KiB time=00:00:02.03 bitrate=   2.5kbits/s speed=0.136x elapsed=0:00:15.00    \nframe=   63 fps=4.0 q=33.0 size=       1KiB time=00:00:02.10 bitrate=   2.4kbits/s speed=0.135x elapsed=0:00:15.56    \nframe=   65 fps=4.0 q=23.0 size=       1KiB time=00:00:02.16 bitrate=   2.3kbits/s speed=0.135x elapsed=0:00:16.09    \nframe=   68 fps=4.1 q=33.0 size=       1KiB time=00:00:02.26 bitrate=   2.2kbits/s speed=0.136x elapsed=0:00:16.62    \nframe=   70 fps=4.1 q=33.0 size=       1KiB time=00:00:02.33 bitrate=   2.2kbits/s speed=0.136x elapsed=0:00:17.16    \nframe=   72 fps=4.1 q=33.0 size=       1KiB time=00:00:02.40 bitrate=   2.1kbits/s speed=0.135x elapsed=0:00:17.75    \nframe=   75 fps=4.1 q=33.0 size=       1KiB time=00:00:02.50 bitrate=   2.0kbits/s speed=0.137x elapsed=0:00:18.28    \nframe=   76 fps=4.0 q=33.0 size=       1KiB time=00:00:02.53 bitrate=   2.0kbits/s speed=0.134x elapsed=0:00:18.85    \nframe=   79 fps=4.1 q=32.0 size=       1KiB time=00:00:02.63 bitrate=   1.9kbits/s speed=0.136x elapsed=0:00:19.38    \nframe=   82 fps=4.1 q=33.0 size=       1KiB time=00:00:02.73 bitrate=   1.9kbits/s speed=0.137x elapsed=0:00:19.93    \nframe=   85 fps=4.2 q=32.0 size=       1KiB time=00:00:02.83 bitrate=   1.8kbits/s speed=0.138x elapsed=0:00:20.46    \nframe=   87 fps=4.1 q=33.0 size=       1KiB time=00:00:02.90 bitrate=   1.7kbits/s speed=0.138x elapsed=0:00:21.00    \nframe=   89 fps=4.1 q=22.0 size=       1KiB time=00:00:02.96 bitrate=   1.7kbits/s speed=0.138x elapsed=0:00:21.55    \nframe=   92 fps=4.2 q=32.0 size=       1KiB time=00:00:03.06 bitrate=   1.7kbits/s speed=0.139x elapsed=0:00:22.07    \nframe=   94 fps=4.2 q=33.0 size=       1KiB time=00:00:03.13 bitrate=   1.6kbits/s speed=0.139x elapsed=0:00:22.60    \nframe=   97 fps=4.2 q=31.0 size=       1KiB time=00:00:03.23 bitrate=   1.6kbits/s speed=0.14x elapsed=0:00:23.13    \nframe=  100 fps=4.2 q=33.0 size=       1KiB time=00:00:03.30 bitrate=   1.5kbits/s speed=0.139x elapsed=0:00:23.72    \nframe=  102 fps=4.2 q=33.0 size=       1KiB time=00:00:03.40 bitrate=   1.5kbits/s speed=0.14x elapsed=0:00:24.27    \nframe=  105 fps=4.2 q=32.0 size=       1KiB time=00:00:03.50 bitrate=   1.4kbits/s speed=0.141x elapsed=0:00:24.78    \nframe=  108 fps=4.3 q=33.0 size=       1KiB time=00:00:03.60 bitrate=   1.4kbits/s speed=0.142x elapsed=0:00:25.31    \nframe=  110 fps=4.2 q=32.0 size=       1KiB time=00:00:03.66 bitrate=   1.4kbits/s speed=0.142x elapsed=0:00:25.88    \nframe=  112 fps=4.2 q=33.0 size=       1KiB time=00:00:03.73 bitrate=   1.4kbits/s speed=0.141x elapsed=0:00:26.43    \nframe=  115 fps=4.3 q=31.0 size=       1KiB time=00:00:03.83 bitrate=   1.3kbits/s speed=0.142x elapsed=0:00:26.96    \nframe=  118 fps=4.3 q=32.0 size=       1KiB time=00:00:03.93 bitrate=   1.3kbits/s speed=0.143x elapsed=0:00:27.48    \nframe=  120 fps=4.3 q=34.0 size=       1KiB time=00:00:04.00 bitrate=   1.3kbits/s speed=0.143x elapsed=0:00:28.02    \nframe=  123 fps=4.3 q=33.0 size=       1KiB time=00:00:04.10 bitrate=   1.2kbits/s speed=0.144x elapsed=0:00:28.56    \nframe=  126 fps=4.3 q=31.0 size=       1KiB time=00:00:04.16 bitrate=   1.2kbits/s speed=0.143x elapsed=0:00:29.08    \nframe=  126 fps=4.3 q=31.0 size=       1KiB time=00:00:04.20 bitrate=   1.2kbits/s speed=0.142x elapsed=0:00:29.63    \nframe=  126 fps=4.2 q=31.0 size=       1KiB time=00:00:04.20 bitrate=   1.2kbits/s speed=0.139x elapsed=0:00:30.16    \nframe=  126 fps=4.1 q=31.0 size=       1KiB time=00:00:04.20 bitrate=   1.2kbits/s speed=0.137x elapsed=0:00:30.67    \nframe=  126 fps=4.0 q=31.0 size=       1KiB time=00:00:04.20 bitrate=   1.2kbits/s speed=0.135x elapsed=0:00:31.20    \nframe=  126 fps=4.0 q=31.0 size=       1KiB time=00:00:04.20 bitrate=   1.2kbits/s speed=0.132x elapsed=0:00:31.78    \nframe=  126 fps=3.9 q=31.0 size=       1KiB time=00:00:04.20 bitrate=   1.2kbits/s speed=0.13x elapsed=0:00:32.39    \nframe=  126 fps=3.8 q=31.0 size=       1KiB time=00:00:04.20 bitrate=   1.2kbits/s speed=0.127x elapsed=0:00:32.97    \nframe=  126 fps=3.8 q=31.0 size=       1KiB time=00:00:04.20 bitrate=   1.2kbits/s speed=0.125x elapsed=0:00:33.59    \nframe=  126 fps=3.7 q=31.0 size=       1KiB time=00:00:04.20 bitrate=   1.2kbits/s speed=0.123x elapsed=0:00:34.22    \n[out#0/webm @ 000001d830a19280] video:5010KiB audio:0KiB subtitle:0KiB other streams:0KiB global headers:0KiB muxing overhead: 0.036490%\nframe=  150 fps=4.3 q=32.0 Lsize=    5012KiB time=00:00:05.00 bitrate=8211.3kbits/s speed=0.144x elapsed=0:00:34.68    \n",
  "seconds": 35.02381443977356,
  "probe_out": {}
}